<svg xmlns="http://www.w3.org/2000/svg" viewBox="0 0 366.19 34.42">
  <defs>
    <style>.cls-1{fill:#fff;}</style>
  </defs>
  <path class="cls-1" d="M102.43,1.84V32.48A1.41,1.41,0,0,1,101,33.89H98.17c-8,0-10.5-2.86-19.68-15l-.81-1.05C69.47,7.13,68.8,6.25,64.83,6.25h0V32.49a1.4,1.4,0,0,1-1.4,1.4h-3a1.4,1.4,0,0,1-1.4-1.4h0V1.84a1.4,1.4,0,0,1,1.4-1.4h2.86c8.41,0,10.84,2.86,19.78,15,8.42,11.47,9.3,12.67,13.56,12.67h0V1.84A1.4,1.4,0,0,1,98,.44h3a1.4,1.4,0,0,1,1.4,1.4ZM226.15.44h-3.92a4.58,4.58,0,0,0-3.82,2.05L202.86,21,187.36,2.49a4.6,4.6,0,0,0-3.83-2h-3.91a1.42,1.42,0,0,0-1.41,1.4V32.48a1.41,1.41,0,0,0,1.41,1.41h2.8a1.41,1.41,0,0,0,1.41-1.41h0V7l16.39,19.31a1.42,1.42,0,0,0,1.07.49h3.18a1.44,1.44,0,0,0,1.08-.49L221.92,7v25.5a1.41,1.41,0,0,0,1.41,1.41h2.81a1.42,1.42,0,0,0,1.4-1.41V1.84A1.4,1.4,0,0,0,226.15.44ZM330.6,28.26H314c-7.62,0-10.19-2-10.19-7.91V1.84a1.4,1.4,0,0,0-1.4-1.4h-2.91a1.39,1.39,0,0,0-1.4,1.38V20.35c0,9.49,4.75,13.54,15.9,13.54H330.6a1.4,1.4,0,0,0,1.4-1.4V29.64A1.42,1.42,0,0,0,330.6,28.26ZM349.45.44h-3.21A1.27,1.27,0,0,0,345,1.69v31a1.25,1.25,0,0,0,1.26,1.26h3.21a1.25,1.25,0,0,0,1.25-1.25h0V1.69A1.25,1.25,0,0,0,349.45.44Zm-186,16.72c0,14.28-9.26,17.21-23.16,17.21s-23.15-2.93-23.15-17.21S126.4,0,140.29,0s23.17,2.92,23.17,17.16Zm-5.87,0c0-10-5.57-11.73-17.29-11.73S123,7.18,123,17.16s5.57,11.73,17.28,11.73,17.29-1.75,17.29-11.73ZM32.59,7c-2.13-4.21-4.65-7-10-7-5.73,0-8.19,3.37-10,7L.15,31.85a1.42,1.42,0,0,0,.06,1.37,1.4,1.4,0,0,0,1.2.67h3a1.41,1.41,0,0,0,1.26-.78L18.15,8.31c1.13-2.25,2.4-3.17,4.41-3.17s3.36.92,4.46,3.17l12.47,24.8a1.4,1.4,0,0,0,1.25.78h3a1.41,1.41,0,0,0,1.38-1.44,1.39,1.39,0,0,0-.13-.56ZM274,7c-2.13-4.21-4.65-7-10-7-5.73,0-8.19,3.37-10,7L241.59,31.84a1.4,1.4,0,0,0,.69,1.87,1.39,1.39,0,0,0,.56.13h3a1.4,1.4,0,0,0,1.25-.78L259.6,8.31c1.12-2.25,2.4-3.17,4.41-3.17s3.33.92,4.45,3.18l12.46,24.8a1.41,1.41,0,0,0,1.26.78h3a1.41,1.41,0,0,0,1.39-1.41,1.46,1.46,0,0,0-.14-.59Z M22.6,25.12c-2.56,0-3.78-.38-3.78-2.58S20,20,22.6,20s3.78.39,3.78,2.58S25.16,25.12,22.6,25.12Zm241.44,0c-2.57,0-3.78-.38-3.78-2.58S261.48,20,264,20s3.78.39,3.78,2.58S266.6,25.13,264,25.12Z M356.19,5A5,5,0,1,1,361.26,10h-.07a4.91,4.91,0,0,1-5-4.82Zm5,4.11a4,4,0,0,0,4-4V5a4,4,0,1,0-8,0,4,4,0,0,0,3.89,4.11h.11Zm-1-1.26h-.85V2.2h2.15c1.34,0,2,.5,2,1.62a1.49,1.49,0,0,1-1.4,1.56H362l1.61,2.49h-1l-1.5-2.45h-1Zm1-3.18c.73,0,1.38-.06,1.38-.93,0-.7-.64-.83-1.24-.83h-1.17V4.69Z" transform="translate(0 0.05)"/>
</svg>
