<?xml version="1.0" encoding="utf-8"?>
<!-- Generator: Adobe Illustrator 15.1.0, SVG Export Plug-In  -->
<!DOCTYPE svg PUBLIC "-//W3C//DTD SVG 1.1//EN" "http://www.w3.org/Graphics/SVG/1.1/DTD/svg11.dtd" [
	<!ENTITY ns_flows "http://ns.adobe.com/Flows/1.0/">
]>
<svg version="1.1"
	 xmlns="http://www.w3.org/2000/svg" xmlns:xlink="http://www.w3.org/1999/xlink" xmlns:a="http://ns.adobe.com/AdobeSVGViewerExtensions/3.0/"
	 x="0px" y="0px" width="240px" height="70px" viewBox="0 -0.003 240 70" enable-background="new 0 -0.003 240 70"
	 xml:space="preserve">
<defs>
</defs>
<linearGradient id="SVGID_1_" gradientUnits="userSpaceOnUse" x1="482.2754" y1="734.3491" x2="510.2148" y2="734.3491" gradientTransform="matrix(1 0 0 1 -377 -715.0049)">
	<stop  offset="0.0032" style="stop-color:#BA141A"/>
	<stop  offset="0.2405" style="stop-color:#EE3124"/>
	<stop  offset="0.4082" style="stop-color:#EE3124"/>
	<stop  offset="0.6614" style="stop-color:#BA141A"/>
	<stop  offset="0.8639" style="stop-color:#EE3124"/>
</linearGradient>
<path display="none" fill="url(#SVGID_1_)" d="M107.178,27.896c0,0,0.653-1.849,2.002-3.604c2.343-3.047,5.208-6.008,8.812-5.608
	c4.287,0.477,6.41,4.005,10.015,1.803c3.604-2.203,5.208-2.804,5.208-2.804s-2.003-4.206-1.804-6.409
	c0.204-2.23-1.804,4.006-6.009,4.206c-4.205,0.201-8.01-4.006-12.417-1.401c-2.808,1.657-7.71,8.329-7.71,8.329L107.178,27.896z"/>
<path display="none" fill="#EE3124" d="M131.661,9.572c0,0,0.101-0.701,1.103-1.602s1.202-1.301,1.502-1.202
	c0.303,0.101,0.603,0.301,0.303,0.501c-0.303,0.2-2.555,2.503-2.854,3.404"/>
<path display="none" fill="#EE3124" d="M132.096,11.572c0,0,0.211-0.676,1.344-1.406c1.131-0.73,1.396-1.092,1.672-0.946
	c0.281,0.146,0.548,0.393,0.22,0.542s-2.919,2.063-3.362,2.905"/>
<path display="none" fill="#EE3124" d="M132.678,13.667c0,0,0.234-0.668,1.391-1.359c1.158-0.691,1.431-1.044,1.705-0.888
	c0.276,0.156,0.531,0.411,0.197,0.549c-0.334,0.139-2.988,1.963-3.459,2.789"/>
<path display="none" fill="#EE3124" d="M134.105,16.487c0,0,0.504-0.495,1.847-0.604c1.345-0.108,1.748-0.304,1.924-0.042
	c0.181,0.263,0.297,0.604-0.063,0.581c-0.359-0.023-3.549,0.438-4.336,0.97"/>
<path display="none" fill="#EE3124" d="M133.494,14.921c0,0,0.383-0.596,1.667-0.999c1.288-0.404,1.637-0.685,1.866-0.47
	c0.231,0.217,0.422,0.524,0.063,0.582c-0.354,0.057-3.36,1.214-4.01,1.91"/>
<circle display="none" fill="#EE3124" cx="131.512" cy="10.773" r="0.426"/>
<circle display="none" fill="#EE3124" cx="131.914" cy="12.777" r="0.426"/>
<circle display="none" fill="#EE3124" cx="132.363" cy="14.629" r="0.426"/>
<circle display="none" fill="#EE3124" cx="132.814" cy="15.928" r="0.426"/>
<circle display="none" fill="#EE3124" cx="133.363" cy="17.333" r="0.425"/>
<path display="none" fill="#81817A" d="M27.546,26.2l-2.901,4.102c-0.593-0.591-1.648-1.145-3.156-1.677
	c-1.506-0.529-2.991-0.795-4.456-0.795c-3.182,0-5.705,1.103-7.571,3.317c-1.871,2.206-2.806,5.239-2.806,9.089
	c0,3.834,0.947,6.752,2.838,8.757C11.392,51.001,14.015,52,17.378,52c2.605,0,5.225-1.007,7.871-3.027l2.296,4.89
	c-3.122,2.019-6.981,3.026-11.586,3.026c-4.459,0-8.146-1.498-11.058-4.492c-2.912-2.991-4.369-7.049-4.369-12.159
	c0-5.213,1.522-9.401,4.569-12.558c3.043-3.156,7.21-4.733,12.501-4.733c1.707,0,3.549,0.348,5.542,1.062
	C25.131,24.719,26.603,25.45,27.546,26.2z"/>
<path display="none" fill="#81817A" d="M57.373,48.212V36.481c0-4.711-1.075-8.141-3.223-10.301
	c-2.142-2.162-5.586-3.236-10.324-3.236c-1.776,0-3.634,0.318-5.575,0.955c-1.943,0.639-3.462,1.408-4.564,2.301l2.441,4.855
	c1.952-1.956,4.741-2.94,8.364-2.94c4.724,0,7.082,2.641,7.082,7.921c-1.546-0.521-2.933-0.78-4.154-0.78
	c-4.509,0-8.199,1.148-11.108,3.444c-2.899,2.29-4.347,5.104-4.347,8.427c0,2.777,0.939,5.099,2.825,6.964
	c1.883,1.861,4.105,2.797,6.674,2.797c4.787,0,8.343-1.451,10.66-4.363c0.508,1.541,1.354,2.654,2.523,3.326
	c1.172,0.674,2.936,1.01,5.302,1.01V53.96C58.234,52.999,57.373,51.082,57.373,48.212z M51.573,48.122
	c-2.263,2.781-4.86,4.172-7.797,4.172c-4.012,0-6.018-1.701-6.018-5.111c0-2.064,0.928-3.851,2.781-5.356
	c1.854-1.517,4.249-2.269,7.186-2.269c0.726,0,2.014,0.207,3.848,0.621V48.122z"/>
<path display="none" fill="#81817A" d="M84.303,29.136c-1.263-0.873-2.539-1.307-3.823-1.307c-2.059,0-3.86,0.942-5.392,2.838
	c-1.544,1.895-2.31,4.17-2.31,6.839v18.761h-5.799V23.559h5.799v5.212c2.117-3.888,5.267-5.827,9.445-5.827
	c1.042,0,2.54,0.18,4.492,0.544L84.303,29.136z"/>
<path display="none" fill="#81817A" d="M136.195,56.266V37.238c0-3.483-0.523-5.923-1.571-7.317
	c-1.05-1.396-2.806-2.092-5.274-2.092c-1.326,0-2.709,0.393-4.154,1.188c-1.447,0.8-2.562,1.776-3.334,2.932v24.317h-5.795V23.559
	h3.974l1.826,4.22c1.913-3.227,5.045-4.834,9.381-4.834c7.166,0,10.756,4.354,10.756,13.075v20.248h-5.808V56.266L136.195,56.266z"
	/>
<path display="none" fill="#81817A" d="M172.957,52.617c-1.801-1.543-4.307-2.31-7.521-2.31c-0.89,0-2.26,0.16-4.106,0.477
	c-1.853,0.311-3.212,0.468-4.097,0.468c-1.981,0-2.981-0.414-2.981-1.251c0-0.615,0.479-1.105,1.427-1.484
	c0.948-0.377,1.711-0.595,2.276-0.649l4.795-0.488c3.335-0.33,6.04-1.608,8.09-3.848c2.062-2.245,3.095-5.011,3.095-8.311
	c0-3.117-0.742-5.64-2.232-7.58l3.468-2.624l-3.78-3.573l-2.906,3.486c-1.807-1.325-4.319-1.984-7.532-1.984
	c-3.502,0-6.443,1.135-8.822,3.42c-2.383,2.275-3.573,5.128-3.573,8.545c0,5.337,2.299,9.082,6.899,11.233
	c-1.604,0.393-2.949,1.026-4.036,1.898c-1.081,0.878-1.625,1.859-1.625,2.934c0,3.508,2.314,5.265,6.96,5.265
	c0.949,0,2.281-0.165,3.991-0.489c1.71-0.322,2.889-0.49,3.545-0.49c3.827,0,5.73,1.319,5.73,3.967c0,1.345-0.756,2.467-2.267,3.375
	c-1.521,0.901-3.592,1.357-6.226,1.357c-2.85,0-5.959-1.129-9.346-3.39l-3.142,4.649c1.418,1.08,3.308,1.998,5.647,2.754
	c2.336,0.754,4.567,1.127,6.682,1.127c4.129,0,7.551-0.924,10.24-2.771c2.689-1.855,4.043-4.296,4.043-7.309
	C175.652,56.289,174.757,54.151,172.957,52.617z M154.514,34.933c0-2.04,0.633-3.771,1.904-5.194c1.273-1.428,2.909-2.14,4.928-2.14
	c1.87,0,3.434,0.712,4.68,2.14c1.248,1.424,1.882,3.155,1.882,5.194c0,2.365-0.583,4.272-1.744,5.729
	c-1.157,1.459-2.769,2.183-4.813,2.183c-2.096,0-3.762-0.742-4.99-2.24C155.123,39.102,154.514,37.214,154.514,34.933z"/>
<path display="none" fill="#81817A" d="M205.223,27.417c-2.58-2.982-6.223-4.474-10.897-4.474c-4.451,0-8.032,1.545-10.751,4.655
	c-2.723,3.105-4.082,7.186-4.082,12.239c0,5.219,1.306,9.364,3.912,12.439c2.602,3.07,6.242,4.609,10.921,4.609
	c4.557,0,8.161-1.521,10.81-4.564c2.651-3.051,3.977-7.211,3.977-12.484C209.107,34.541,207.809,30.4,205.223,27.417z
	 M200.675,48.86c-1.536,2.203-3.655,3.302-6.352,3.302c-5.806,0-8.703-4.104-8.703-12.324c0-3.79,0.782-6.768,2.358-8.929
	c1.582-2.162,3.688-3.245,6.344-3.245c5.767,0,8.654,4.061,8.654,12.174C202.977,43.651,202.209,46.658,200.675,48.86z"/>
<path display="none" fill="#81817A" d="M107.198,48.942c-0.139,1.115-3.405,2.007-7.42,2.007c-4.02,0-7.285-0.892-7.423-2.007
	h-0.012v5.565c0,1.148,3.325,2.085,7.439,2.085c4.106,0,7.432-0.937,7.432-2.085h0.042v-5.565H107.198z"/>
<path display="none" fill="#81817A" d="M107.198,40.301c-0.145,1.117-3.409,2.01-7.42,2.01c-4.02,0-7.28-0.893-7.423-2.01h-0.012
	v5.569c0,1.146,3.325,2.084,7.439,2.084c4.106,0,7.432-0.938,7.432-2.084h0.042v-5.569H107.198z"/>
<path display="none" fill="#81817A" d="M107.198,31.662c-0.145,1.121-3.409,2.005-7.42,2.005c-4.02,0-7.28-0.885-7.423-2.005h-0.012
	v5.567c0,1.153,3.325,2.086,7.439,2.086c4.106,0,7.432-0.933,7.432-2.086h0.042v-5.567H107.198z"/>
<path display="none" fill="#EE3124" d="M107.198,23.024c-0.145,1.112-3.409,2.005-7.42,2.005c-4.02,0-7.28-0.893-7.423-2.005h-0.012
	v5.561c0,1.153,3.325,2.089,7.439,2.089c4.106,0,7.432-0.936,7.432-2.089h0.042v-5.561H107.198z"/>
<ellipse display="none" fill="#BA141A" cx="99.767" cy="21.84" rx="7.911" ry="6.059"/>
<ellipse transform="matrix(-0.9465 -0.3227 0.3227 -0.9465 188.7995 69.1702)" display="none" fill="#EE3124" cx="100.134" cy="18.934" rx="7.438" ry="2.083"/>
<radialGradient id="SVGID_25_" cx="700.6006" cy="576.9419" r="9.3164" gradientTransform="matrix(0.9465 0.3226 -0.3226 0.9465 -377.2284 -753.7623)" gradientUnits="userSpaceOnUse">
	<stop  offset="0" style="stop-color:#FFFFFF"/>
	<stop  offset="0.4247" style="stop-color:#FDFDFD"/>
	<stop  offset="0.5903" style="stop-color:#F7F7F6"/>
	<stop  offset="0.7106" style="stop-color:#EBEBEA"/>
	<stop  offset="0.8089" style="stop-color:#DBDBD9"/>
	<stop  offset="0.8939" style="stop-color:#C6C6C2"/>
	<stop  offset="0.9684" style="stop-color:#ACADA7"/>
	<stop  offset="1" style="stop-color:#9FA099"/>
</radialGradient>
<circle display="none" fill="url(#SVGID_25_)" cx="99.768" cy="18.329" r="9.313"/>
<circle display="none" cx="95.952" cy="15.865" r="1.302"/>
<circle display="none" cx="103.07" cy="17.022" r="1.301"/>
<path display="none" d="M98.727,17.658l-5.73,4.395l6.412-2.047C99.408,20.004,102.708,19.015,98.727,17.658z"/>
<ellipse transform="matrix(-0.9465 -0.3228 0.3228 -0.9465 180.0651 76.9365)" display="none" cx="96.412" cy="23.537" rx="1.102" ry="1.001"/>
<circle display="none" cx="99.349" cy="24.667" r="1.022"/>
<circle display="none" cx="102.402" cy="23.828" r="0.91"/>
<linearGradient id="SVGID_33_" gradientUnits="userSpaceOnUse" x1="355.5566" y1="766.3364" x2="372.2119" y2="766.3364" gradientTransform="matrix(0.9904 -0.1383 0.1383 0.9904 -367.5295 -698.2061)">
	<stop  offset="0.0063" style="stop-color:#81817A"/>
	<stop  offset="1" style="stop-color:#565654"/>
</linearGradient>
<path display="none" fill="url(#SVGID_33_)" d="M95.619,7.215c0,0-4.115-1.261-5.117,0.409c-1.002,1.669,0.293,5.899,10.087,6.532
	c9.795,0.633,6.458-2.196,6.458-2.196S94.535,11.248,95.619,7.215z"/>
<linearGradient id="SVGID_35_" gradientUnits="userSpaceOnUse" x1="359.7441" y1="759.5015" x2="376.2062" y2="765.4931" gradientTransform="matrix(0.9904 -0.1383 0.1383 0.9904 -367.5295 -698.2061)">
	<stop  offset="0" style="stop-color:#81817A"/>
	<stop  offset="0.3892" style="stop-color:#9C9C94"/>
	<stop  offset="1" style="stop-color:#565654"/>
</linearGradient>
<path display="none" fill="url(#SVGID_35_)" d="M95.416,7.135c0,0,0.727-3.44-0.969-5.909l17.291,2.912c0,0-2.772,1.458-3.912,5.087
	c0,0-2.832,1.243-6.206,0.632C97.719,9.152,95.416,7.135,95.416,7.135z"/>
<path display="none" fill="#EE3124" d="M106.969,9.404c-1.168,0.037-3.634-0.085-6.178-0.431c-2.442-0.331-4.641-1.195-5.375-1.837
	l-0.737,3.027l-0.026,0.354c0,0-0.01,0.217,0.23,0.402c0.723,0.559,2.799,1.715,6.34,1.994c4.58,0.36,6.277-0.111,6.277-0.111
	s0.041-2.654,0.325-3.575C107.826,9.225,107.336,9.393,106.969,9.404z"/>
<ellipse transform="matrix(-0.9875 -0.1574 0.1574 -0.9875 204.7637 20.9241)" display="none" fill="#4D4C48" cx="103.21" cy="2.353" rx="8.929" ry="1.911"/>
<path display="none" fill="#4D4C48" d="M90.368,7.936c0,0-0.494,2.775,4.213,4.471c3.218,1.159,4.288,1.215,6.505,1.091
	c2.101-0.116,4.006-0.794,5.642-2.141c1.636-1.347,3.715-2.392,4.91-2.333c1.245,0.062,2.285,1.623,0.606,3.504
	c-1.678,1.881-6.238,2.93-13.04,1.82C92.404,13.241,89.544,10.462,90.368,7.936z"/>
<circle display="none" cx="104.766" cy="22.162" r="0.75"/>
<path fill="#55314C" d="M28.646,19.862l-3.074,4.354c-0.631-0.627-1.751-1.213-3.353-1.778c-1.597-0.56-3.174-0.842-4.726-0.841
	c-3.377,0.003-6.05,1.176-8.03,3.526c-1.982,2.343-2.973,5.558-2.969,9.644c0.002,4.068,1.009,7.161,3.017,9.287
	c2.018,2.131,4.797,3.188,8.365,3.185c2.765-0.001,5.544-1.071,8.349-3.218l2.44,5.185c-3.309,2.144-7.405,3.217-12.292,3.22
	c-4.728,0.003-8.641-1.581-11.732-4.759C1.552,44.497,0.004,40.194,0,34.772c-0.003-5.531,1.608-9.974,4.837-13.326
	c3.228-3.35,7.645-5.028,13.259-5.032c1.811,0,3.764,0.37,5.88,1.125C26.084,18.294,27.645,19.066,28.646,19.862z"/>
<path fill="#55314C" d="M60.303,43.194l-0.01-12.446c-0.002-4.998-1.146-8.634-3.425-10.927c-2.273-2.292-5.93-3.428-10.956-3.425
	c-1.885,0-3.855,0.342-5.911,1.018c-2.063,0.681-3.672,1.496-4.841,2.445l2.592,5.151c2.069-2.079,5.026-3.125,8.871-3.127
	c5.012-0.004,7.513,2.797,7.519,8.399c-1.638-0.554-3.109-0.826-4.408-0.826c-4.783,0.003-8.698,1.225-11.781,3.662
	c-3.074,2.431-4.607,5.417-4.605,8.942c0.002,2.945,1,5.407,3.002,7.387c2,1.973,4.357,2.962,7.08,2.962
	c5.079-0.004,8.85-1.546,11.308-4.638c0.539,1.638,1.438,2.812,2.677,3.527c1.246,0.715,3.117,1.068,5.628,1.065l-0.002-3.075
	C61.218,48.271,60.305,46.237,60.303,43.194z M54.15,43.1c-2.4,2.952-5.153,4.43-8.269,4.432c-4.255,0.004-6.384-1.801-6.388-5.417
	c0-2.19,0.982-4.087,2.949-5.687c1.965-1.609,4.504-2.406,7.62-2.408c0.771,0,2.137,0.217,4.082,0.654L54.15,43.1z"/>
<path fill="#55314C" d="M88.857,22.938c-1.34-0.926-2.695-1.387-4.056-1.386c-2.184,0.002-4.095,1.003-5.719,3.015
	c-1.635,2.012-2.446,4.425-2.444,7.257l0.013,19.903l-6.152,0.006l-0.024-34.7l6.153-0.003l0.003,5.528
	c2.242-4.127,5.58-6.187,10.016-6.19c1.104,0,2.693,0.19,4.765,0.576L88.857,22.938z"/>
<path fill="#55314C" d="M135.113,51.686L135.1,31.499c-0.003-3.695-0.561-6.282-1.671-7.762c-1.114-1.478-2.978-2.217-5.596-2.215
	c-1.406,0.001-2.876,0.42-4.409,1.264c-1.536,0.85-2.717,1.885-3.533,3.112l0.017,25.799l-6.15,0.004l-0.024-34.697L117.951,17
	l1.94,4.475c2.027-3.425,5.348-5.132,9.948-5.136c7.598-0.005,11.412,4.614,11.418,13.863l0.019,21.482L135.113,51.686z"/>
<path fill="#55314C" d="M174.111,47.786c-1.913-1.633-4.57-2.443-7.984-2.441c-0.943,0-2.398,0.173-4.358,0.507
	c-1.964,0.332-3.406,0.499-4.342,0.499c-2.104,0.003-3.164-0.436-3.164-1.324c0-0.653,0.502-1.175,1.51-1.577
	c1.006-0.4,1.812-0.631,2.418-0.692l5.084-0.521c3.54-0.35,6.406-1.711,8.578-4.087c2.188-2.382,3.279-5.315,3.276-8.819
	c-0.002-3.305-0.793-5.98-2.374-8.039l3.676-2.786l-4.014-3.789l-3.077,3.702c-1.921-1.404-4.589-2.103-7.995-2.102
	c-3.715,0.002-6.835,1.21-9.358,3.637c-2.526,2.417-3.784,5.441-3.781,9.069c0.002,5.662,2.44,9.632,7.325,11.912
	c-1.7,0.414-3.127,1.091-4.28,2.019c-1.147,0.93-1.721,1.971-1.72,3.11c0.002,3.723,2.462,5.582,7.387,5.577
	c1.007,0,2.418-0.175,4.234-0.52c1.813-0.345,3.061-0.525,3.758-0.525c4.062-0.002,6.084,1.397,6.085,4.204
	c0,1.427-0.801,2.619-2.4,3.581c-1.616,0.96-3.812,1.442-6.604,1.444c-3.023,0-6.324-1.191-9.913-3.586l-3.333,4.935
	c1.507,1.146,3.509,2.117,5.992,2.918c2.482,0.797,4.851,1.192,7.091,1.189c4.381-0.003,8.009-0.984,10.863-2.948
	c2.852-1.973,4.286-4.559,4.283-7.758C176.97,51.682,176.021,49.416,174.111,47.786z M154.53,29.04
	c-0.002-2.163,0.667-4,2.015-5.509c1.354-1.518,3.09-2.273,5.229-2.274c1.984-0.002,3.64,0.753,4.965,2.267
	c1.324,1.509,1.995,3.345,1.995,5.507c0.003,2.51-0.612,4.535-1.843,6.079c-1.229,1.549-2.937,2.317-5.108,2.319
	c-2.222,0.001-3.988-0.786-5.295-2.373C155.18,33.464,154.533,31.462,154.53,29.04z"/>
<path fill="#55314C" d="M208.321,21.033c-2.743-3.162-6.607-4.744-11.57-4.74c-4.721,0.003-8.518,1.647-11.398,4.947
	c-2.888,3.295-4.323,7.625-4.321,12.986c0.006,5.535,1.392,9.931,4.159,13.194c2.763,3.258,6.626,4.885,11.585,4.88
	c4.836-0.002,8.656-1.618,11.468-4.849c2.807-3.235,4.211-7.652,4.205-13.248C212.444,28.587,211.063,24.194,208.321,21.033z
	 M203.511,43.783c-1.632,2.339-3.878,3.506-6.737,3.506c-6.154,0.006-9.232-4.347-9.238-13.067c-0.003-4.021,0.825-7.18,2.497-9.475
	c1.672-2.294,3.908-3.444,6.724-3.445c6.117-0.006,9.184,4.3,9.188,12.906C205.947,38.255,205.134,41.445,203.511,43.783z"/>
<path fill="#55314C" d="M106.181,47.057c0.004,2.742-2.22,4.967-4.962,4.967c-2.741,0.004-4.965-2.219-4.968-4.96
	c-0.001-2.743,2.219-4.968,4.961-4.969C103.954,42.094,106.179,44.315,106.181,47.057z"/>
<path fill="#55314C" d="M106.171,33.963c0.002,2.742-2.217,4.968-4.96,4.97c-2.743,0.001-4.967-2.221-4.969-4.963
	c0-2.742,2.219-4.965,4.962-4.967C103.946,29,106.169,31.222,106.171,33.963z"/>
<path fill="#55314C" d="M106.163,20.871c0.002,2.743-2.22,4.967-4.962,4.968c-2.742,0.002-4.965-2.218-4.968-4.961
	c-0.002-2.742,2.219-4.969,4.964-4.97C103.937,15.906,106.161,18.129,106.163,20.871z"/>
<path fill="#E25B4A" d="M106.153,7.778c0.003,2.743-2.219,4.966-4.958,4.968c-2.745,0.002-4.968-2.218-4.969-4.961
	c-0.003-2.743,2.219-4.966,4.96-4.969C103.926,2.813,106.151,5.035,106.153,7.778z"/>
<path fill="#55314C" d="M215.02,21.371c0-1.415,0.502-2.623,1.506-3.625c1.005-1.001,2.214-1.502,3.629-1.502
	s2.625,0.501,3.626,1.502c1.001,1.001,1.502,2.21,1.502,3.625c0,1.417-0.501,2.624-1.502,3.629s-2.211,1.506-3.626,1.506
	s-2.624-0.502-3.629-1.506C215.521,23.997,215.02,22.788,215.02,21.371z M224.445,21.371c0-1.187-0.418-2.198-1.256-3.035
	c-0.837-0.838-1.848-1.256-3.035-1.256c-1.187,0-2.199,0.418-3.037,1.256c-0.841,0.837-1.262,1.848-1.262,3.035
	c0,1.187,0.421,2.201,1.262,3.04c0.838,0.84,1.851,1.261,3.037,1.261c1.188,0,2.198-0.42,3.035-1.261
	C224.027,23.572,224.445,22.558,224.445,21.371z M221.752,24.469l-1.604-2.717h-0.914v2.717h-0.905v-6.322h1.621
	c1.521,0,2.282,0.583,2.282,1.75c0,0.812-0.407,1.384-1.224,1.718l1.728,2.854H221.752z M219.233,18.922v2.099
	c0.076,0.011,0.274,0.016,0.594,0.016c0.589,0,0.984-0.076,1.188-0.225c0.203-0.149,0.304-0.435,0.304-0.855
	c0-0.695-0.458-1.043-1.369-1.043h-0.358L219.233,18.922z"/>
</svg>
